<svg width="52" height="14" viewBox="0 0 52 14" fill="none" xmlns="http://www.w3.org/2000/svg">
<g clip-path="url(#clip0_38_9628)" filter="url(#filter0_d_38_9628)">
<path d="M1 12V0H50.7143V12H1ZM2.1883 10.7928H49.5164V1.25063H2.1883V10.7921V10.7928Z" fill="black"/>
<path d="M36.7348 5.7403C36.7271 7.94567 34.9504 9.48298 32.8105 9.13646C31.5461 8.93131 30.7428 8.24156 30.4997 7.02183C30.1122 5.07487 31.2864 3.18446 33.2383 2.95498C33.7756 2.89186 34.3524 2.9175 34.875 3.0523C35.8682 3.30874 36.8084 4.2523 36.7348 5.74095V5.7403ZM35.0931 5.85537C35.1001 4.98939 34.5405 4.38446 33.7282 4.38052C32.7964 4.37657 32.0596 5.17219 32.0532 6.19005C32.0481 7.05405 32.6154 7.67805 33.4116 7.68265C34.3703 7.68857 35.0841 6.91268 35.0924 5.85537H35.0931Z" fill="black"/>
<path d="M13.4931 8.98719H11.9025C12.0209 8.18698 12.136 7.40648 12.2581 6.57865C11.6199 6.57865 11.0257 6.57076 10.4328 6.58917C10.3657 6.59114 10.2608 6.73054 10.2454 6.8193C10.1233 7.52944 10.019 8.24221 9.90584 8.97865H8.31909C8.62416 6.99158 8.92603 5.02029 9.2311 3.03257H10.8198C10.7034 3.79399 10.5908 4.53569 10.4738 5.30303H12.4628C12.5811 4.54818 12.6988 3.79728 12.819 3.03125H14.4109C14.1046 5.02161 13.8001 6.9975 13.4938 8.98785L13.4931 8.98719Z" fill="black"/>
<path d="M25.0576 5.94409C25.7317 6.97773 26.37 7.95614 27.0492 8.99702C26.4077 8.99702 25.8289 9.0036 25.2501 8.98847C25.1836 8.9865 25.1062 8.87604 25.0582 8.7991C24.6374 8.12776 24.2223 7.45182 23.804 6.77784C23.749 6.68973 23.6876 6.60557 23.5828 6.45171C23.4766 7.13554 23.3717 7.74113 23.2905 8.35001C23.2035 9.00294 23.2131 9.00491 22.5799 9.00162C22.2921 9.00031 22.0043 8.99636 21.7172 8.99176C21.6986 8.99176 21.6794 8.97467 21.6238 8.94771C21.9244 6.98891 22.2262 5.01828 22.53 3.03319H24.1136C23.9895 3.83143 23.8686 4.60535 23.7484 5.37927C23.7746 5.4036 23.8008 5.42793 23.8271 5.45291C23.8731 5.37204 23.9064 5.28064 23.9658 5.21291C24.5587 4.53828 25.1503 3.86234 25.7585 3.20217C25.8532 3.0996 26.0252 3.02595 26.1647 3.02069C26.7339 3.00031 27.3044 3.01215 27.9126 3.01215C26.934 4.01686 25.9952 4.9808 25.0576 5.94343V5.94409Z" fill="black"/>
<path d="M48.1714 3.01282C47.2044 4.0057 46.2668 4.96833 45.3254 5.93425C46.0052 6.97644 46.6429 7.95419 47.3233 8.9977C46.687 8.9977 46.1101 9.00559 45.5332 8.98784C45.459 8.98587 45.3714 8.86422 45.3183 8.7794C44.9084 8.12647 44.5048 7.46893 44.0993 6.81337C44.0373 6.71343 43.974 6.61414 43.8652 6.44121C43.7789 6.96263 43.7034 7.40384 43.6337 7.84636C43.5845 8.15935 43.5563 8.47562 43.4911 8.78466C43.4738 8.86817 43.3581 8.98718 43.2832 8.99047C42.8381 9.00954 42.3923 9.00033 41.8896 9.00033C42.1986 6.98762 42.5017 5.01041 42.8061 3.02926H44.3884C44.265 3.82291 44.1441 4.59485 44.0091 5.46082C44.2739 5.16756 44.485 4.93611 44.6935 4.70203C45.1316 4.20888 45.5588 3.70389 46.0122 3.22587C46.1216 3.1108 46.3135 3.0286 46.4708 3.02203C47.0298 2.9977 47.59 3.01282 48.1714 3.01282Z" fill="black"/>
<path d="M41.6461 3.575C41.4139 3.98596 41.1965 4.36996 40.9784 4.75527C40.7481 4.60667 40.5524 4.45083 40.3331 4.34957C40.1757 4.27659 39.9749 4.22398 39.8137 4.25949C39.6628 4.29302 39.4748 4.42848 39.4223 4.56656C39.3814 4.67439 39.4844 4.90387 39.5918 4.99461C39.8016 5.17346 40.0568 5.29774 40.2972 5.43713C41.1709 5.94344 41.4939 6.51089 41.3704 7.33017C41.2278 8.279 40.6247 8.9247 39.6929 9.10683C38.7649 9.28831 37.92 9.12853 37.1979 8.45193C36.9914 8.25861 36.9217 8.10146 37.1238 7.8516C37.3463 7.57544 37.5305 7.26574 37.7448 6.95012C37.9219 7.10267 38.0844 7.25456 38.259 7.39001C38.5487 7.6162 38.8832 7.75691 39.2413 7.67801C39.4217 7.63856 39.6283 7.49653 39.7236 7.33807C39.8393 7.14541 39.7184 6.93237 39.5298 6.80809C39.2618 6.63187 38.9913 6.45828 38.7124 6.30113C38.0581 5.93423 37.6559 5.42333 37.771 4.60864C37.8899 3.76239 38.4393 3.13182 39.2375 2.94442C40.1278 2.73533 40.9183 2.9602 41.6454 3.57434L41.6461 3.575Z" fill="black"/>
<path d="M16.8541 5.37404H18.5041C18.4389 5.82643 18.3781 6.24856 18.3142 6.68977H16.6475C16.5938 7.02051 16.5439 7.33021 16.4876 7.6787H18.2784C18.2119 8.12517 18.1511 8.53481 18.0859 8.97339H14.709C15.0141 6.98435 15.3178 5.0078 15.621 3.03125H18.9921C18.9282 3.46193 18.8776 3.87289 18.7964 4.27662C18.783 4.34435 18.6346 4.42522 18.5457 4.42851C18.1306 4.44429 17.7149 4.44429 17.2998 4.43246C17.0773 4.42588 16.934 4.45678 16.941 4.74215C16.9455 4.93547 16.8892 5.1301 16.8528 5.37404H16.8541Z" fill="black"/>
<path d="M8.438 3.03058C8.37341 3.46061 8.32224 3.87091 8.24038 4.27463C8.22567 4.34565 8.08433 4.4331 7.99735 4.4377C7.66925 4.45677 7.33924 4.44559 6.98172 4.44559C6.74509 5.96844 6.51165 7.47288 6.27629 8.98718H4.69082C4.92298 7.47485 5.15258 5.98159 5.3873 4.45217H4.09155C4.17086 3.95573 4.24377 3.50006 4.3186 3.03058H8.438Z" fill="black"/>
<path d="M27.387 9.00162C27.6971 6.9922 28.0003 5.02354 28.3073 3.03516H29.9094C29.8256 3.61247 29.7482 4.17072 29.6625 4.72831C29.4591 6.05324 29.2442 7.37685 29.0524 8.7031C29.0178 8.93981 28.9424 9.01609 28.7141 9.00688C28.2811 8.98979 27.8462 9.00162 27.3876 9.00162H27.387Z" fill="black"/>
</g>
<defs>
<filter id="filter0_d_38_9628" x="0.262062" y="0" width="51.1902" height="13.4759" filterUnits="userSpaceOnUse" color-interpolation-filters="sRGB">
<feFlood flood-opacity="0" result="BackgroundImageFix"/>
<feColorMatrix in="SourceAlpha" type="matrix" values="0 0 0 0 0 0 0 0 0 0 0 0 0 0 0 0 0 0 127 0" result="hardAlpha"/>
<feOffset dy="0.737938"/>
<feGaussianBlur stdDeviation="0.368969"/>
<feComposite in2="hardAlpha" operator="out"/>
<feColorMatrix type="matrix" values="0 0 0 0 0 0 0 0 0 0 0 0 0 0 0 0 0 0 0.1 0"/>
<feBlend mode="normal" in2="BackgroundImageFix" result="effect1_dropShadow_38_9628"/>
<feBlend mode="normal" in="SourceGraphic" in2="effect1_dropShadow_38_9628" result="shape"/>
</filter>
<clipPath id="clip0_38_9628">
<rect width="49.7143" height="12" fill="white" transform="translate(1)"/>
</clipPath>
</defs>
</svg>
